<svg xmlns="http://www.w3.org/2000/svg" viewBox="0 0 48 48" fill="none">
  
  <defs>
    <clipPath id="cloud">
      <path d="M14.5 36c-4.7 0-8.5-3.6-8.5-8.1 0-3.9 2.9-7.2 6.8-7.9.6-5.4 5.4-9.6 11.2-9.6 4.5 0 8.4 2.6 10.1 6.3.7-.2 1.4-.3 2.2-.3 4.3 0 7.7 3.4 7.7 7.5 0 1-.2 1.9-.5 2.7 2.3.9 4 3.1 4 5.7 0 3.4-2.8 6.1-6.3 6.1H14.5z"></path>
    </clipPath>
  </defs>
  <g clip-path="url(#cloud)">
    <rect x="0" y="0" width="24" height="24" fill="#4285F4"></rect>
    <rect x="24" y="0" width="24" height="24" fill="#EA4335"></rect>
    <rect x="0" y="24" width="24" height="24" fill="#34A853"></rect>
    <rect x="24" y="24" width="24" height="24" fill="#FBBC04"></rect>
  </g>
</svg>